<svg xmlns="http://www.w3.org/2000/svg" xmlns:xlink="http://www.w3.org/1999/xlink" xmlns:serif="http://www.serif.com/" width="100%" height="100%" viewBox="0 0 49 49" xml:space="preserve" style="fill-rule:evenodd;clip-rule:evenodd;stroke-linejoin:round;stroke-miterlimit:2;">    <g transform="matrix(1,0,0,1,-6532,-1688)">        <g id="all-in-one_ecosystem_icon" transform="matrix(1.10216,0,0,0.919759,8824.88,2978.84)">            <g transform="matrix(1.19198,0,0,1.42837,-7371.9,-3396.27)">                <circle cx="4457.91" cy="1413.86" r="18.302" style="fill:rgb(253,253,253);"></circle>            </g>            <g transform="matrix(-1.19198,1.74925e-16,-1.45976e-16,-1.42837,3255.61,642.757)">                <path d="M4457.91,1395.56C4447.8,1395.56 4439.6,1403.75 4439.6,1413.86C4439.6,1423.97 4447.8,1432.16 4457.91,1432.16L4457.91,1395.56Z" style="fill:rgb(217,217,217);fill-opacity:0.82;"></path>            </g>            <g transform="matrix(-1.16914,0,0,1.16914,-4466.16,234.863)">                <g transform="matrix(5.61569e-17,1.09899,-0.917112,6.72936e-17,-755.355,-6276.35)">                    <path d="M4463.79,1422.17C4464.5,1420.93 4464.88,1419.53 4464.88,1418.1C4464.88,1413.6 4461.23,1409.95 4456.73,1409.95C4452.23,1409.95 4448.58,1413.6 4448.58,1418.1C4448.58,1419.53 4448.96,1420.93 4449.67,1422.17L4463.79,1422.17Z" style="fill:rgb(0,37,143);"></path>                </g>                <g transform="matrix(-5.61569e-17,1.09899,0.917112,6.72936e-17,-3363.93,-6276.35)">                    <path d="M4463.79,1422.17C4464.5,1420.93 4464.88,1419.53 4464.88,1418.1C4464.88,1413.6 4461.23,1409.95 4456.73,1409.95C4452.23,1409.95 4448.58,1413.6 4448.58,1418.1C4448.58,1419.53 4448.96,1420.93 4449.67,1422.17L4463.79,1422.17Z" style="fill:rgb(0,58,221);"></path>                </g>            </g>        </g>    </g></svg>