<svg xmlns="http://www.w3.org/2000/svg" xmlns:xlink="http://www.w3.org/1999/xlink" xmlns:serif="http://www.serif.com/" width="100%" height="100%" viewBox="0 0 49 49" xml:space="preserve" style="fill-rule:evenodd;clip-rule:evenodd;stroke-linejoin:round;stroke-miterlimit:2;">    <g transform="matrix(1,0,0,1,-6664,-2365)">        <g id="asset_backing_tax" transform="matrix(0.838937,0,0,0.859877,8191.39,2212.93)">            <g transform="matrix(1.31376,0,0,1.06964,912.584,1677.62)">                <g transform="matrix(1.19198,0,0,1.42837,-7371.9,-3396.27)">                    <circle cx="4457.91" cy="1413.86" r="18.302" style="fill:rgb(2,51,186);"></circle>                </g>                <g transform="matrix(7.2988e-17,-1.42837,1.19198,8.74624e-17,-3743.44,4990.78)">                    <path d="M4439.6,1413.86C4439.6,1423.97 4447.8,1432.16 4457.91,1432.16C4468.01,1432.16 4476.21,1423.97 4476.21,1413.86L4457.91,1413.86L4439.6,1413.86Z" style="fill:rgb(0,37,143);fill-opacity:0.82;"></path>                </g>            </g>            <g>                <g transform="matrix(0.72372,0,0,0.72372,-494.773,56.2402)">                    <g transform="matrix(5.95202e-17,0.80653,-1.1295,-3.02677e-16,3349.9,-3363.08)">                        <path d="M4439.74,4540.5C4439.74,4539.37 4438.49,4538.45 4436.95,4538.45C4435.4,4538.45 4434.15,4539.37 4434.15,4540.5L4434.15,4563.35C4434.15,4564.48 4435.4,4565.39 4436.95,4565.39C4438.49,4565.39 4439.74,4564.48 4439.74,4563.35L4439.74,4540.5Z" style="fill:rgb(216,216,216);"></path>                    </g>                    <g transform="matrix(5.95202e-17,0.80653,-1.1295,-3.02677e-16,3349.9,-3356.49)">                        <path d="M4439.74,4540.5C4439.74,4539.37 4438.49,4538.45 4436.95,4538.45C4435.4,4538.45 4434.15,4539.37 4434.15,4540.5L4434.15,4563.35C4434.15,4564.48 4435.4,4565.39 4436.95,4565.39C4438.49,4565.39 4439.74,4564.48 4439.74,4563.35L4439.74,4540.5Z" style="fill:rgb(216,216,216);"></path>                    </g>                    <g transform="matrix(1.19198,0,0,1.16296,-7100.06,-5102.24)">                        <circle cx="4453.45" cy="4558.36" r="10.465" style="fill:rgb(216,216,216);"></circle>                    </g>                </g>                <g transform="matrix(1.19198,0,0,1.16296,-9764,-2573.54)">                    <path d="M6688.58,2398.06L6688.58,2400.87L6696.42,2400.87C6697.19,2400.87 6697.82,2400.24 6697.82,2399.47C6697.82,2398.69 6697.19,2398.06 6696.42,2398.06L6688.58,2398.06ZM6688.58,2393.96L6688.58,2396.76L6696.42,2396.76C6697.19,2396.76 6697.82,2396.14 6697.82,2395.36C6697.82,2394.59 6697.19,2393.96 6696.42,2393.96L6688.58,2393.96ZM6688.58,2377.51C6692.73,2377.55 6696.08,2380.93 6696.08,2385.09C6696.08,2389.24 6692.73,2392.62 6688.58,2392.66L6688.58,2377.51Z" style="fill:rgb(248,248,248);"></path>                </g>            </g>        </g>    </g></svg>