<svg xmlns="http://www.w3.org/2000/svg" xmlns:xlink="http://www.w3.org/1999/xlink" xmlns:serif="http://www.serif.com/" width="100%" height="100%" viewBox="0 0 49 49" xml:space="preserve" style="fill-rule:evenodd;clip-rule:evenodd;stroke-linejoin:round;stroke-miterlimit:2;">    <g transform="matrix(1,0,0,1,-6532,-2039)">        <g id="base_asset_icon" transform="matrix(1.10216,0,0,0.919759,8824.89,3329.75)">            <g>                <g transform="matrix(1.19198,0,0,1.42837,-7371.9,-3396.27)">                    <circle cx="4457.91" cy="1413.86" r="18.302" style="fill:rgb(2,51,186);"></circle>                </g>                <g transform="matrix(7.2988e-17,-1.42837,1.19198,8.74624e-17,-3743.44,4990.78)">                    <path d="M4439.6,1413.86C4439.6,1423.97 4447.8,1432.16 4457.91,1432.16C4468.01,1432.16 4476.21,1423.97 4476.21,1413.86L4457.91,1413.86L4439.6,1413.86Z" style="fill:rgb(0,37,143);fill-opacity:0.82;"></path>                </g>            </g>            <g transform="matrix(0.887038,0,0,0.887038,-232.492,-155.52)">                <g transform="matrix(-0.249097,0,0,0.298496,-1917.84,-1748.23)">                    <g transform="matrix(0.351832,0,0,0.348472,98.4671,801.585)">                        <path d="M1321.06,1273.73L1454.42,1340.17L1321.06,1406.61L1187.7,1340.17L1321.06,1273.73Z" style="fill:white;"></path>                    </g>                    <g transform="matrix(0.351832,0,0,0.348472,98.4671,777.483)">                        <path d="M1321.06,1273.73L1454.42,1340.17L1321.06,1406.61L1187.7,1340.17L1321.06,1273.73Z" style="fill:white;"></path>                    </g>                    <g transform="matrix(0.351832,0,0,0.348472,98.4671,753.381)">                        <path d="M1321.06,1273.73L1454.42,1340.17L1321.06,1406.61L1187.7,1340.17L1321.06,1273.73Z" style="fill:white;"></path>                    </g>                </g>                <g transform="matrix(1.02285,0,0,1.2257,-8764.47,-3905.94)">                    <path d="M6556.48,2074.97L6556.48,2051.96L6545.06,2057.6L6551,2060.53L6545.06,2063.46L6551,2066.4L6545.06,2069.33L6556.48,2074.97Z" style="fill:rgb(216,216,216);"></path>                </g>            </g>        </g>    </g></svg>