<svg xmlns="http://www.w3.org/2000/svg" xmlns:xlink="http://www.w3.org/1999/xlink" xmlns:serif="http://www.serif.com/" width="100%" height="100%" viewBox="0 0 49 49" xml:space="preserve" style="fill-rule:evenodd;clip-rule:evenodd;stroke-linejoin:round;stroke-miterlimit:2;">    <g transform="matrix(1,0,0,1,-6791,-2039)">        <g id="burning_for_backing_icon" transform="matrix(0.838937,0,0,0.700099,8094.1,3029.12)">            <g transform="matrix(1.31376,0,0,1.31376,1179.5,429.409)">                <g transform="matrix(1.19198,0,0,1.42837,-7371.9,-3396.27)">                    <circle cx="4457.91" cy="1413.86" r="18.302" style="fill:rgb(2,51,186);"></circle>                </g>                <g transform="matrix(7.2988e-17,-1.42837,1.19198,8.74624e-17,-3743.44,4990.78)">                    <path d="M4439.6,1413.86C4439.6,1423.97 4447.8,1432.16 4457.91,1432.16C4468.01,1432.16 4476.21,1423.97 4476.21,1413.86L4457.91,1413.86L4439.6,1413.86Z" style="fill:rgb(0,37,143);fill-opacity:0.82;"></path>                </g>            </g>            <g transform="matrix(0.877104,0,0,0.877104,-187.342,-169.512)">                <g transform="matrix(0.905997,0,0,1.08567,-5967.77,-4325.5)">                    <path d="M4896.33,2715.89C4899.42,2710.6 4904.42,2705.06 4903.14,2695.48C4906.45,2702.09 4909.75,2709.18 4911.32,2715.71C4913.03,2713.89 4914.55,2711.63 4915,2708.19C4916.23,2714.2 4918.04,2721 4916.04,2725.51C4914.89,2728.1 4912.37,2732.56 4903.14,2731.88C4895.63,2731.32 4892.7,2725.03 4892.33,2723.66C4891.3,2719.79 4892.18,2714.49 4893.18,2709.61C4893.55,2712.52 4894.87,2714.39 4896.33,2715.89Z" style="fill:rgb(216,216,216);"></path>                </g>                <g transform="matrix(1.359,0,0,1.62851,-10786.3,-4739.67)">                    <path d="M6815.22,2052.99C6817.13,2056.91 6818.92,2060.99 6819.83,2064.8C6820.97,2063.58 6821.99,2062.08 6822.29,2059.78C6823.11,2063.79 6824.32,2068.32 6822.98,2071.33C6822.25,2072.98 6820.69,2075.75 6815.22,2075.62L6815.22,2052.99Z" style="fill:white;"></path>                </g>            </g>        </g>    </g></svg>