<svg xmlns="http://www.w3.org/2000/svg" xmlns:xlink="http://www.w3.org/1999/xlink" xmlns:serif="http://www.serif.com/" width="100%" height="100%" viewBox="0 0 49 49" xml:space="preserve" style="fill-rule:evenodd;clip-rule:evenodd;stroke-linejoin:round;stroke-miterlimit:2;">    <g transform="matrix(1,0,0,1,-6664,-1688)">        <g id="elimination_of_rug-pulls_icon" transform="matrix(0.838937,0,0,0.700099,8191.34,2678.21)">            <g transform="matrix(1.56631,0,0,1.87693,-8773.76,-4033.03)">                <circle cx="4457.91" cy="1413.86" r="18.302" style="fill:rgb(253,253,253);"></circle>            </g>            <g transform="matrix(-1.56598,2.29808e-16,-1.91777e-16,-1.87653,5189.71,1273.83)">                <path d="M4457.91,1395.56C4447.8,1395.56 4439.6,1403.75 4439.6,1413.86C4439.6,1423.97 4447.8,1432.16 4457.91,1432.16L4457.91,1395.56Z" style="fill:rgb(217,217,217);fill-opacity:0.82;"></path>            </g>            <g transform="matrix(-1,0,0,1,-3582.65,0)">                <g transform="matrix(-1.19198,0,0,1.42837,6181.3,-3825.48)">                    <path d="M6695.49,1709.33L6681.58,1709.33C6680.5,1709.33 6679.61,1710.19 6679.61,1711.24L6679.61,1722.01C6679.61,1722.01 6687.59,1729.67 6697.46,1722.01L6697.46,1711.25C6697.46,1710.19 6696.57,1709.33 6695.49,1709.33ZM6684.68,1705.84C6684.68,1703.65 6685.95,1701.87 6688.54,1701.87C6691.13,1701.87 6692.4,1703.65 6692.4,1705.84L6692.4,1708.96L6695.4,1708.96L6695.4,1705C6695.4,1701.8 6692.32,1699.2 6688.54,1699.2C6684.75,1699.2 6681.68,1701.8 6681.68,1705L6681.68,1708.96L6684.68,1708.96L6684.68,1705.84Z" style="fill:rgb(0,58,221);fill-rule:nonzero;"></path>                </g>                <g transform="matrix(-1.19198,0,0,1.42837,6181.3,-3825.48)">                    <path d="M6688.53,1709.33L6688.53,1725.41C6685.91,1725.39 6682.86,1724.53 6679.61,1722.01L6679.61,1711.25C6679.61,1710.19 6680.5,1709.33 6681.58,1709.33L6688.53,1709.33ZM6688.53,1699.2L6688.53,1701.87L6688.53,1701.87C6685.94,1701.87 6684.67,1703.65 6684.67,1705.84L6684.67,1708.96L6681.66,1708.96L6681.66,1705C6681.66,1701.8 6684.74,1699.2 6688.53,1699.2L6688.53,1699.2Z" style="fill:rgb(0,37,143);fill-rule:nonzero;"></path>                </g>            </g>        </g>    </g></svg>