<svg xmlns:serif="http://www.serif.com/" xmlns="http://www.w3.org/2000/svg" xmlns:xlink="http://www.w3.org/1999/xlink" id="Layer_1" x="0px" y="0px" viewBox="0 0 1280 1280" style="enable-background:new 0 0 1280 1280;" xml:space="preserve"><style type="text/css">	.st0{fill-rule:evenodd;clip-rule:evenodd;fill:#FCFCFC;}	.st1{fill-rule:evenodd;clip-rule:evenodd;fill:#D9D9D9;fill-opacity:0.82;}	.st2{fill:#091420;}	.st3{fill:#040404;}	.st4{fill-rule:evenodd;clip-rule:evenodd;fill:#696969;}	.st5{fill-rule:evenodd;clip-rule:evenodd;fill:#F6AF39;}	.st6{fill-rule:evenodd;clip-rule:evenodd;fill:#E52A4E;}	.st7{fill-rule:evenodd;clip-rule:evenodd;fill:#F4B538;}	.st8{fill-rule:evenodd;clip-rule:evenodd;fill:#F1B536;}	.st9{fill-rule:evenodd;clip-rule:evenodd;fill:#F5BF39;}	.st10{fill-rule:evenodd;clip-rule:evenodd;fill:#F3BA39;}	.st11{fill-rule:evenodd;clip-rule:evenodd;fill:#F7C53C;}	.st12{fill-rule:evenodd;clip-rule:evenodd;fill:#F3BF39;}	.st13{fill-rule:evenodd;clip-rule:evenodd;fill:#F7C63C;}	.st14{fill-rule:evenodd;clip-rule:evenodd;fill:#8F651E;}	.st15{fill-rule:evenodd;clip-rule:evenodd;fill:#855D1B;}	.st16{fill-rule:evenodd;clip-rule:evenodd;fill:#F6C23B;}	.st17{fill-rule:evenodd;clip-rule:evenodd;fill:#F7C63D;}	.st18{fill-rule:evenodd;clip-rule:evenodd;fill:#614418;}	.st19{fill-rule:evenodd;clip-rule:evenodd;fill:#7B571A;}	.st20{fill-rule:evenodd;clip-rule:evenodd;fill:#040404;}	.st21{fill-rule:evenodd;clip-rule:evenodd;fill:#060606;}	.st22{fill-rule:evenodd;clip-rule:evenodd;fill:#F5BA3A;}	.st23{fill-rule:evenodd;clip-rule:evenodd;fill:#F6C33C;}	.st24{fill-rule:evenodd;clip-rule:evenodd;fill:#FFFFFF;}	.st25{fill-rule:evenodd;clip-rule:evenodd;fill:#E95F7D;}	.st26{fill-rule:evenodd;clip-rule:evenodd;fill:#EC6C88;}	.st27{fill-rule:evenodd;clip-rule:evenodd;fill:#EA627F;}	.st28{fill:#E5294F;}</style><g transform="matrix(1,0,0,1,-6664,-2752)">	<g id="feg_ex_icon" transform="matrix(0.838937,0,0,0.700099,8191.33,3741.86)">		<g transform="matrix(1,0,0,1,266.886,-253.045)">			<g transform="matrix(1.56631,0,0,1.87693,-9040.63,-3779.99)">				<circle class="st0" cx="4927.5" cy="1876.5" r="478.1"></circle>			</g>			<g transform="matrix(-1.56598,2.29808e-16,-1.91777e-16,-1.87653,4922.83,1526.86)">				<path class="st1" d="M3988.3,473.3c-264.1,0-478.3,213.9-478.3,478s214.2,478,478.3,478V473.3z"></path>			</g>		</g>		<g>			<g>				<g>					<path class="st2" d="M-710.9-355.5c-22,0-39.8-8.3-53.4-24.9c-13.6-16.6-20.5-38.7-20.5-66.2v-5.1c0-18.5,3-35,8.9-49.5      c5.9-14.5,14.3-25.8,25-33.9c10.7-8.1,22.7-12.1,35.9-12.1c21,0,37.3,8,48.7,24.1c11.5,16.1,17.2,38.8,17.2,68.2v16.8h-100.9      c1,15.3,5.3,27.4,12.8,36.2c7.5,8.9,16.9,13.3,28.2,13.3c15.9,0,28.8-7.7,38.8-23.1l18.7,21.4c-6.2,11.1-14.4,19.6-24.8,25.7      C-686.5-358.5-698.1-355.5-710.9-355.5z M-715-513.9c-9.5,0-17.2,4-23,12c-5.8,8-9.6,19.1-11.2,33.3h66v-3.1      c-0.8-13.9-3.9-24.4-9.3-31.5C-697.9-510.4-705.4-513.9-715-513.9z"></path>					<path class="st2" d="M-581.3-483l29.4-60.9h38.5l-47.2,91.1l48.8,93.8H-550l-30.8-63.2l-30.7,63.2H-650l48.8-93.8l-47.1-91.1      h38.2L-581.3-483z"></path>				</g>			</g>			<g>				<path class="st3" d="M-1439.4-737.5c8,3.6,15.1,9.5,21.5,16.5c14.1,15.6,22.2,34.8,25,57.4c0.3,2.6,0.5,5.3,0.6,8     c0,1.1,0.5,1.8,1.2,2.3c5.7,4.2,10.8,9.3,15.7,14.6c10.4,11.3,18.3,24.9,25.1,39.5c8.1,17.6,13.7,36.4,17,56.1     c1.1,6.7,1.9,13.6,2.4,20.4c0.6,7.5,0.6,15.1,0.5,22.6c-0.1,3.7-0.3,7.4-0.8,11.1c-0.2,2.1,0,3.9,0.8,5.8     c2.4,5.7,4.2,11.7,6.2,17.7c2,6,3.2,12.2,4.3,18.4c0.6,3.7,0.7,7.5,1.1,11.2c0,7.2,0,18.4-1.5,26.5     c-2.4,12.2-7.3,22.9-13.1,33.1c-5.2,9.2-11.6,17.3-18.3,24.9c-6.8,7.6-13.8,14.9-21.2,21.7c-8.3,7.6-16.6,15.3-24.5,23.5     c-8.5,8.8-16.6,18-22.7,29.4c-0.8,1.5-1.6,3.1-2.3,4.7c-0.2,0.4-0.4,0.8-0.8,0.7c-0.3-0.1-0.4-0.5-0.4-0.9     c-0.1-0.8-0.3-1.7-0.3-2.5c0-4.5-0.2-9,0-13.5c0.3-6.1,1.3-12.1,3.4-18.1c-3.6,4.1-6.4,8.5-8.3,13.7     c-4.1,11.1-6.3,22.7-7.5,34.7c-0.1,1-0.1,1.9-0.7,2.8c-0.1,0-0.2,0-0.3,0c-1.7-0.5-3.1-1.8-4.6-2.8c-6.7-4.6-13.9-7.8-21.2-10.6     c-8.3-3.1-16.9-5-25.2-8c-9.2-3.3-18-7.4-25.5-14.8c-2.9-2.9-5.6-6-8-9.5c-2.1-3.1-4.8-5.1-7.9-6.1c-4.6-1.5-9.2-3-13.5-5.6     c-16.1-9.6-26.9-24-29.6-46c-0.4-3.3-1-6.4-3-9c-1.2-1.6-2.8-2.5-4.3-3.4c-6-3.7-8.9-9.7-8.8-17.8c0-3.7,1.1-7.1,2.8-10.1     c2.2-3.9,2.5-7.9,1.5-12.4c-2.7-12-3.5-24.2-3-36.6c0.4-10,2.1-19.8,5.1-29.2c1.7-5.4,0.9-9-2.9-12.3     c-7.1-6.2-11.3-14.5-12.6-24.9c-0.2-1.4-0.6-2.7-1.5-3.7c-1.8-2-3.3-4.3-3.6-7.4c0-0.7,0-1.5,0-2.2c0.2-1.3,0.2-2.7,0-4     c0-0.5,0-1,0-1.5c0.5-4.1,3-6.2,5.7-7.9c4.2-2.8,5.4-5.7,4.8-11.4c-0.9-7.8,0.9-14.7,5.3-20.5c1.2-1.5,1.6-3,1.4-4.9     c-0.5-6.1,0.3-12.1,1.7-18c1.2-4.9,2.8-9.7,5-14.1c2.5-4.7,5.2-9.3,8.4-13.4c4.6-5.9,9.7-11.3,15.4-15.6c1-0.8,1.6-1.8,1.9-3.2     c4.4-17.7,10.3-34.5,18.2-50.3c3.6-7.2,8.1-13.7,12.8-20c4.7-6.4,10.1-12,16-16.8c9.1-7.5,19-12.2,29.9-14.3     C-1475.2-743.8-1460.7-747.1-1439.4-737.5z"></path>				<path class="st4" d="M-1603.6-531.6c0.5,1.3,0.5,2.7,0,4C-1603.6-528.9-1603.6-530.2-1603.6-531.6z"></path>				<path class="st5" d="M-1528.8-437.3c-3,0.2-4.9-1.9-6.5-4.6c-2.3-3.8-3-8.3-3.6-12.9c-1.2-10.3-0.5-20.6,0.5-31     c-0.6,0.2-0.8,0.8-1,1.3c-4.7,8.4-6.6,17.9-6.7,27.8c-0.1,6.9,0.7,13.7,2.2,20.4c0.6,2.8,0,4.3-2.3,5.3     c-8.5,3.5-16.5,8.1-23.9,14.2c-3.3,2.6-6.2,0.8-6.9-3.8c-0.4-2.4-0.5-4.8-1.1-7.1c-0.1-0.6,0.1-1.3-0.3-1.9c0-0.3,0-0.7,0-1     c0.5-1.3,0.3-2.5-0.3-3.7c-0.4-6-0.2-11.9,0.3-17.9c0.4-0.5,0.1-1.4,0.5-1.9c1.1-10.2,3.6-19.9,7.7-29c1.9-4.2,4.8-4.6,7.5-1.3     c3.7,4.5,9.2,6,13.4,3.6c0.9-0.5,1.7-1.2,2.4-2.2c0.2-0.3,0.6-0.6,0.5-1.1c-0.1-0.5-0.6-0.3-0.9-0.3c-2,0-3.8-0.5-5.6-1.6     c-2.8-1.8-4.5-4.4-4.8-8.3c0.2-1.4,0-2.9,0-4.4c0.4-6.5,4.7-10.8,10.3-10.4c2.3,0.2,4.5,1.1,6.6,2c0.7,0.3,0.9,0.9,1.1,1.6     c0.8,2.7,2.1,5.1,4.1,7.5c-0.4-3.1-0.8-5.8-0.7-8.5c0.4-6.7,2.5-12,7.8-15c2.9-1.6,6-1.9,9.1-0.9c4.4,1.4,7,5.8,7.5,12     c0.7,9.1-3.4,16.6-10,18.7c-0.1,0-0.1,0.2-0.2,0.2c3.6,1.7,9.2,0.1,12.6-3.7c3.1-3.4,4.9-7.7,5.8-12.5c0.8-4.1,2.6-5.8,6.1-6     c7.5-0.6,14.9-2.2,21.9-5.6c5.8-2.8,9.4-8.4,11.8-15c2.1-5.7,3.2-11.6,3.1-17.9c0-1.5,0-3,0.3-4.5c0.4-2.3,1.4-3.8,3.2-4.6     c1.6-0.7,2.8-2,3.4-3.9c0.6-2,1.9-1.9,3.3-1.8c1.4,0.1,1.5,1.4,1.6,2.6c0.4,4.8-0.1,9.5-0.9,14.1c-3.1,18.4-11.5,32.6-24.2,43.4     c-0.4,0.3-0.9,0.5-1.1,1.3c6,0,11.8,1.3,17.5,3.5c1.8,0.7,3.5,1.6,5.2,2.5c-7.3,0.4-14.4,2.1-21.1,5.5     c17.8,8.5,29.1,23.9,34.8,45.4c-5.4-6.7-11.6-11.3-20-11.7c5.4,7.1,8.4,15.3,10.2,24.3c-5.8-7.3-12.8-8.5-20.8-7     c0.8,0.9,1.7,1.2,2.4,1.7c4.2,2.8,7.8,6.4,9.9,11.7c3.6,9.3,0.1,19.6-7.9,23.1c-0.5,0.2-1,0.4-1.6,0.7c7.8,4,15.2,1.1,20.6-8     c1,5.4,1.5,10.7,1.2,16.1c-0.9,20.6-15,40.2-34.1,43.8c-11.3,2.2-22.2,1.1-32.7-4c-3.4-1.6-6.6-3.8-9.4-7.1     c-0.3,3.3,0,6.4,0.2,9.4c0.3,3,0.9,5.9,1.6,9.2c-7.7-3.8-14.3-9.1-20.5-15.7c-0.3,5.4,0,10.4,0.6,15.4     c1.2,9.1,3.6,17.8,6.9,26.2c0.2,0.4,0.6,0.9,0.2,1.3c-0.2,0.3-0.6,0-0.8-0.1c-10.7-4.4-19.9-11.3-26-23.1     c-5.3-10.1-6.6-21.2-5-32.8c0.5-3.7,1.1-7.4,1.7-11.2c-0.5-0.2-0.8,0.2-1.1,0.4c-2.4,1.6-4.8,3.2-7.2,4.8     c-3.6,2.4-6.7,0.4-8.5-2c-2-2.7-1.3-6.8,0.8-10.1c2.6-4,5.4-7.8,8.7-11c8.4-8.2,18-13.6,28.2-17.5c9.6-3.7,19.5-5.6,29.6-6.7     c14.1-1.5,28.1-0.3,42.1,1.4c2.3,0.3,4.6,0.6,6.8,0.9c0.4,0,0.8,0.5,0.9-0.4c-7.2-5.7-15.3-8.4-23.6-10.2     c-9.8-2.2-19.8-2.6-29.8-2.2c-3.3,0.1-6.6,0.9-9.8,1.5c-0.7,0.1-1.4,0.1-2.1,0.2C-1527.6-437.5-1528.2-437.5-1528.8-437.3z"></path>				<path class="st6" d="M-1469.7-551.5c-0.1,5-1,10.5-3.3,15.5c-2.4,5.2-6.5,7.3-10.9,8.8c-5.4,1.9-10.9,2.6-16.5,3     c-2.2,0.1-4.5,0.6-6.2-1.4c-3.5-4.1-7.7-6.8-12.4-8.6c-1.6-0.6-2.6-2.3-3.3-4.1c-1.9-4.6-3.4-9.4-3.6-14.6     c-0.3-6,1.4-9.9,5.8-12.1c10.9-5.5,22.3-9.2,34-11.6c1.3-0.3,2.7-0.5,4.1-0.7c3.7-0.7,6.4,1.1,8.2,4.9     C-1471.4-567.3-1469.7-559.1-1469.7-551.5z"></path>				<path class="st5" d="M-1489.2-608.3c4.8,0,9.5,1,14.2,1.9c0.4,0.1,0.9,0.3,1.5,0.1c-2.3-5.1-6-8.8-9.9-12.5     c5.4,0.7,10.1,2.7,14.3,6.3c6.6,5.7,11.5,12.9,14.6,21.9c0.5,1.5,0.8,3,1,4.6c0.1,0.6,0,1.3-0.4,1.7c-0.5,0.5-1,0.2-1.4-0.1     c-1-0.6-2-1.4-2.8-2.4c-4.4-5.7-9.7-7.3-16-6c-14.9,3-29.3,8.1-43.7,13.6c-3.5,1.3-6.9,2.8-10.4,4.2c-4.7,1.8-7.6-0.8-7.9-6.7     c-0.3-5.7,2.2-9.9,5.6-13.3c5.3-5.2,11.5-8.2,18-10.3c4.2-1.3,8.4-2.4,12.7-2.6c0.7,0.4,1.5,0,2.1,0.2c0.3,0,0.1-0.4,0.1-0.2     c0,0,0,0-0.1,0.1c-0.5,0.1-1.1,0.3-1.6-0.1c1-0.4,2.1-0.3,3.1-0.3C-1493.8-608-1491.5-608-1489.2-608.3z"></path>				<path class="st6" d="M-1556.3-516.9c0.6-3.2,1.1-6.3,1.1-9.4c0-1,0.2-2.5-0.7-2.8c-0.8-0.3-1.2,1.2-1.5,2     c-0.9,2-1.7,4.1-2.5,6.2c-2.5,6.1-5.6,11.7-10.1,16.1c-0.4,0.4-1,0.7-0.9,1.4c0.2,0.8,0.9,0.7,1.4,0.7c1.1,0.2,2.2,0.2,3.3,0.3     c-0.5,3-2.6,5.2-5.8,5.4c-8.4,0.4-12.4-2.1-15.5-10.3c-2.1-5.3-3.2-11-3.7-16.8c-0.3-3.1,0.8-5.3,2.8-7.2     c4.7-4.5,10.1-7.2,15.5-9.8c3.8-1.9,7.7-3.6,11.8-4.9c3.5-1.1,5.3-0.1,6.7,3.8c2.3,6.5,2.8,13.3,1.1,20.1     C-1553.7-519.9-1554.7-518.2-1556.3-516.9z"></path>				<path class="st5" d="M-1374.5-516.2c-1.6,9.6-2.8,19.5-6.7,28.4c-1.1,2.6-2.4,5.1-4.4,6.9c-2.1,1.9-3.8,2.1-6,0.5     c-0.7-0.5-1.4-1.2-2.1-1.8c-0.7-0.6-1.3-1.3-2-2c4.2-4.8,5.3-10.7,3.3-16.6c-0.8-2.5-2.1-4.4-4-5.8c-2.4-1.8-2.7-3-1.7-6.2     c0.3-0.8,0.5-1.6,0.9-2.3c1.3-3.1,3.9-3.4,5.6-0.5c2.2,3.7,3.3,7.9,4,12.3c0.2,1.2,0.3,2.4,0.5,3.8c1.9-3.5,2.6-7.1,3.1-10.9     c0.1,0.1,0.1,0.2,0.2,0.3c0-1.3,0-2.7,0-4c0,0.3,0.1,0.7-0.2,1c-0.4-3.7-1.3-7.2-2.4-10.7c-0.9-2.5-0.1-4.9,1.9-6.5     c0.8-0.6,1.6-1.1,2.4-1.7c0.8-0.5,1.7-0.8,2.4-1.6c-5.6-5.6-11.9-7.3-19-5.9c-0.4,0.1-0.7,0.2-1.1,0.2c-2.3,0.5-2.3,0.5-1.6-2.3     c1.3-5.6,4.2-9.5,8.9-11.3c0.6-0.2,1.2-0.4,1.8-0.3c0.9,0.3,1.8,0.2,2.7,0c3.5,0.3,5.9,2.8,7.9,5.8c2.7,4.1,4.1,8.8,4.9,13.9     c0.2,0.4,0.3,0.8,0.5,1.2c0,0.3,0,0.7,0,1c-0.5,1.4-0.3,3,0,4.3c0.6,3.1-0.2,6-0.1,9C-1374.7-517.3-1374.8-516.7-1374.5-516.2z"></path>				<path class="st6" d="M-1532.8-621.9c5.8-21.3,16.5-37.5,34-46.7c-1.7,2.8-3.5,5.4-5,8.2c-1.5,2.8-2.9,5.8-4.1,9.1     c10.2-5.8,20.3-8,30.5-0.5C-1499.1-650.6-1517.8-641.2-1532.8-621.9z"></path>				<path class="st6" d="M-1344-505.1c3.1,7.3,3.9,14.6,0.6,22.1c-0.5,1.2-0.5,1.8,0.4,2.8c4.7,4.6,7.2,10.7,7.5,18.6     c-3-5.3-5.9-10-11-12.4c1.8,5.6,1.5,10.7-0.1,16.3c-1.3-5.1-3-9.6-5.3-13.8c-1.5-2.8-3.3-5.4-5.5-7.5c-0.4-0.4-0.9-0.6-0.4-1.6     c3.3-6.8,4.4-14.1,3.3-21.9c3.6,3.9,4.8,9.2,5.4,15.1C-1345.7-493-1344.7-498.9-1344-505.1z"></path>				<path class="st6" d="M-1389.6-632.4c-3.8-4.1-7.7-7.5-13.1-8.3c2.9,4.7,3.7,9.8,3.6,15.2c-0.6-0.1-0.7-0.7-0.9-1.1     c-3.5-6-7.5-11.3-13-14.8c-2.1-1.3-2.1-1.3-1.6-4c1.3-7,0.3-13.6-2.3-20.5c2.5,1.3,4,3.4,5.4,5.5c1.4,2.2,2.4,4.7,3.4,7.6     c2.1-6.3,1.5-12.4,0.8-19c4.8,6.4,7.1,13.3,5.7,21.6c-0.3,1.6,0.1,2,1.2,2.6c5.2,2.9,8.9,7.5,10.8,14.1     C-1389.8-633.2-1389.7-632.9-1389.6-632.4z"></path>				<path class="st5" d="M-1564.5-571.7c1.7,0.7,2.7,2.1,3.2,4.1c0.7,2.9,1.6,5.8,3.4,8.1c-6.7,0.3-12.6,3.6-18.6,6.2     c-1,0.4-2,0.9-3,1.3c-2.4,0.9-4.6-1-4.6-4c0-5.3,2.2-9.3,5.7-12.2c2.4-2,5.1-3.6,8.1-3.8C-1568.4-571.8-1566.4-572-1564.5-571.7     z"></path>				<path class="st5" d="M-1553.2-573.2c0.6-6.2,4-9.4,8.5-11.8c-0.3,3-0.4,5.7,0.1,8.4c0.9,4.9,3,8.9,6.3,11.9c0.9,0.8,1.3,1.5,1,3     c-0.4,1.9-0.4,4-0.1,6c0.1,0.9-0.1,1.3-0.9,1.3c-3.1,0.1-6,0.9-8.7,2.7c-0.4,0.3-0.8,0.5-1.1-0.2c-0.8-1.6-1.8-2.9-3.2-4.3     c2.4-0.2,4.6-0.6,6.7-1.7c-1.2-0.8-2.4-1.5-3.4-2.4c-2.9-2.4-4.9-5.5-5.2-10C-1553-571.3-1553-572.2-1553.2-573.2z"></path>				<path class="st5" d="M-1538.2-544c1.1,0,2.2,0.4,3.1,1.4c2,2.1,2.9,4.9,3.5,7.9c0.3,1.4-0.4,2.6-1.3,3.4     c-3.9,3.3-6.5,7.6-7.6,13.2c-0.1,0.7-0.4,0.9-1.1,0.7c-2.9-0.9-4.3-2.6-3.5-6.5c0.8-4.1,0.8-8.3,0.7-12.5     C-1544.5-540.9-1542.1-543.9-1538.2-544z"></path>				<path class="st6" d="M-1447.7-578c2.1,0.4,4.5,1.2,6.8,2.1c13,5,25.7,11.1,37.9,18.6c0.7,0.4,1,0.7,0.3,1.5     c-0.1,0.2-0.3,0.4-0.4,0.6c-0.8,1.5-1.6,1.7-3,0.8c-6-4-12.2-7.4-18.6-10.3c-7.5-3.4-15-6.8-22.6-9.4c-0.5-0.2-1-0.4-1.4-0.7     c-0.7-0.5-1.3-1.2-1-2.2C-1449.5-577.9-1448.7-578-1447.7-578z"></path>				<path class="st7" d="M-1374.5-516.2c-0.6-0.1-0.6-0.7-0.6-1.3c0.1-1.8-0.2-3.5,0.5-5.3c0.3-0.8,0.3-2.1-0.3-3.1     c-0.6-1.1-0.3-4.6,0.3-5.3C-1373.9-526.2-1373.9-521.2-1374.5-516.2z"></path>				<path class="st8" d="M-1578.8-434.3c1.1,0.6,1.2,2.5,0.3,3.7C-1578.6-431.9-1578.7-433.1-1578.8-434.3z"></path>				<path class="st9" d="M-1489.2-608.3c-2.3,0.5-4.7,0.5-7,0C-1493.8-608.5-1491.5-608.4-1489.2-608.3z"></path>				<path class="st10" d="M-1564.5-571.7c-1.9,0.2-3.9,0-5.8-0.4C-1568.3-572.4-1566.4-572.5-1564.5-571.7z"></path>				<path class="st11" d="M-1557.8-498.7c0.5,1.5,0.5,2.9,0,4.4C-1558-495.7-1558.1-497.2-1557.8-498.7z"></path>				<path class="st12" d="M-1384-513.2c0-0.4,0.1-0.8,0.1-1.2c0,0,0.1,0,0.2,0c0,1.7,0,3.3,0,5.1c-0.4-0.4-0.2-0.9-0.3-1.2     C-1384-511.4-1384-512.3-1384-513.2z"></path>				<path class="st13" d="M-1387.9-553.1c-0.9,0.6-1.8,0.6-2.7,0C-1389.7-553.4-1388.8-553.4-1387.9-553.1z"></path>				<path class="st14" d="M-1578-454.1c0,0.7,0.3,1.5-0.5,1.9C-1578.5-452.9-1578.8-453.7-1578-454.1z"></path>				<path class="st15" d="M-1578.5-429.6c0.8,0.5,0.7,1.1,0.3,1.9C-1578.7-428.3-1578.5-429-1578.5-429.6z"></path>				<path class="st16" d="M-1499.3-608c0.6,0,1.2,0.1,1.9,0.1c-0.8,0.1-1.7,0.6-2.4-0.1C-1499.7-608-1499.5-608-1499.3-608z"></path>				<path class="st13" d="M-1553.2-573.2c0.4,1,0.5,1.9,0,2.9C-1553.4-571.3-1553.4-572.2-1553.2-573.2z"></path>				<path class="st17" d="M-1528.8-437.3c0.6-0.5,1.2-0.5,1.8,0C-1527.6-437.1-1528.2-437.1-1528.8-437.3z"></path>				<path class="st18" d="M-1461.7-426.6c0.3,0,0.5,0.2,0.5,0.5c0,0.3-0.3,0.2-0.5,0.2c-0.3-0.1-0.6-0.2-1-0.3     C-1462.4-426.4-1462-426.2-1461.7-426.6z"></path>				<path class="st19" d="M-1374.5-532.2c-0.6-0.1-0.5-0.7-0.5-1.2C-1374.4-533.3-1374.4-532.8-1374.5-532.2z"></path>				<path class="st20" d="M-1499.9-408.6c-17,10.1-34.6,17.6-54.1,16.3C-1538-407.3-1519.4-410.2-1499.9-408.6z"></path>				<path class="st20" d="M-1528.7-503.7c-1,0.5-1.1-0.2-1-1.1c0-4.7,2.5-8.4,6.1-9c3.7-0.6,6.3,2.8,5.4,7.2     c-0.6,2.6-1.9,4.6-3.4,6.6c-0.6,0.8-0.7,0-1-0.3C-1524.1-502.9-1526.3-503.6-1528.7-503.7z"></path>				<path class="st21" d="M-1552.6-497.1c1.5-6.1,6.2-7.2,10.7-2.3c-1.2,1-2.3,2-3.1,3.5c-0.8,1.4-1.4,3-1.3,4.7     c0.1,1.4-0.4,1.5-1.3,1.1c-2.8-1-4.6-3-5.1-6.5C-1552.8-496.7-1552.8-496.9-1552.6-497.1z"></path>				<path class="st22" d="M-1504.7-439.5c-0.3,0-0.7,0.1-1,0.1c-2.5,0-5,0-7.4-0.2c2.8,0,5.6,0,8.5,0     C-1504.7-439.6-1504.7-439.6-1504.7-439.5z"></path>				<path class="st23" d="M-1552.6-497.1c0,0.2,0,0.4,0,0.6c0,0.2-0.1,0.5-0.1,0.7c-0.1,0-0.1,0-0.2,0c0-0.6,0-1.1,0-1.7     c0-0.2,0.1-0.3,0.1-0.1C-1552.8-497.4-1552.6-497.3-1552.6-497.1z"></path>				<path class="st20" d="M-1475.7-556.8c0.1,6.1-1.2,11.9-3.4,17.4c-2.3,5.8-6.1,9-12.4,8.6c-2-0.1-2.4-1.3-1.2-3.2     c2.4-3.8,4.9-7.5,7.3-11.3c2.2-3.4,4-7,5.2-11.1c0.5-1.7,1.2-3.4,2-4.9c0.4-0.7,0.9-1.5,1.7-1.2c0.7,0.3,0.8,1.2,0.8,2     C-1475.7-559.2-1475.7-558-1475.7-556.8z"></path>				<path class="st24" d="M-1514.2-541.4c-1.6-3.5-2.1-7.2-2.2-11.1c-0.1-2.8,1-4.9,2.6-6.7c2-2.4,4.4-3.1,7.1-2.7     c1.4,0.2,2.5,1.8,2.6,3.6c0.1,2,0.1,4-0.5,6c-1,3.2-1.5,6.7-3.5,9.4c-0.7,1-1.5,1.9-2.2,2.7     C-1511.6-538.8-1513.3-539.4-1514.2-541.4z"></path>				<path class="st25" d="M-1514.2-541.4c1.8,2.1,2.6,2.1,4.4,0c3.6-4.3,5-9.8,5.3-15.6c0.2-3.8-1.9-5.4-5-4.5     c-1.6,0.5-3,1.3-4.4,2.3c-0.1-1.1,0.8-1.4,1.3-1.8c1.9-1.2,4-1.6,6.2-1.2c1.3,0.2,2.6,2,2.5,3.8c-0.1,6.5-1.2,12.6-5.5,17.2     c-0.3,0.3-0.5,0.8-0.7,1.1c-0.7,0.9-1.4,1.5-2.4,1C-1513.4-539.4-1514.2-540-1514.2-541.4z"></path>				<path class="st24" d="M-1576.1-516.5c-0.4,1.1-0.8,2.1-1.2,3.2c-0.3,1.2-1,2.1-1.6,3c-1.2,1.8-2.6,1.6-3.5-0.5     c-0.3-1-0.6-2.1-0.9-3.1c-1.4-4.7-1.7-9.4,0.9-13.7c1.4-2.4,3.6-3.8,6-4.6c1.2-0.4,2.2,0.5,2.5,2c0.5,3.1,0.2,6.2-0.5,9.1     C-1575-519.5-1575.3-517.9-1576.1-516.5z"></path>				<path class="st26" d="M-1576.1-516.5c0.8-3.3,2-6.5,1.9-10.1c0-1.8,0.4-3.9-1.1-5c-1.4-1-2.9,0.3-4.1,1.2     c-4.2,2.9-5.7,6.5-4.4,14.7c0.1,0.6,0.2,1.2,0.3,1.8c-1.6-1.9-1.2-4.3-1.2-6.6c0-0.5,0.2-1.1,0.2-1.6c0.2-5.1,3.6-9.6,7.9-10.4     c1.5-0.3,2.6,0.7,2.9,2.6c0.6,4.3-0.1,8.4-1.6,12.3C-1575.4-517.2-1575.7-516.8-1576.1-516.5z"></path>				<path class="st27" d="M-1582.5-510.8c1.8,2,2.4,1.9,3.7-0.5c0.4-0.7,1-1.3,1.4-2c0.1,1.6-0.6,2.9-1.4,4c-0.7,0.9-1.6,1-2.5,0.6     C-1582-509.1-1582.6-509.6-1582.5-510.8z"></path>			</g>			<g>				<path class="st28" d="M-1148.7-458.1h-80.7v99.1h-50.1v-248.9h138.9v46.3h-88.9v57.3h80.7V-458.1z"></path>				<path class="st28" d="M-996.8-464.5h-78.7v59.5h93v46.2h-143.1v-248.9h143.4v46.3h-93.3v52.5h78.7V-464.5z"></path>				<path class="st28" d="M-803.8-389.7c-7.7,10.3-19,18.5-33.8,24.8c-14.8,6.3-31.1,9.4-48.8,9.4c-27.2,0-48.9-10-65.2-29.9     c-16.3-19.9-25-47.7-26.1-83.2l-0.1-21.5c0-24.5,3.6-45.9,10.8-64.2c7.2-18.3,17.6-32.4,31-42.2c13.5-9.9,29-14.8,46.7-14.8     c25.9,0,46,7.1,60.3,21.3c14.3,14.2,22.7,35.4,25,63.5h-48.2c-1.7-13.9-5.4-23.8-11.1-29.7c-5.7-5.9-13.8-8.9-24.3-8.9     c-12.6,0-22.3,6.4-29.1,19.1c-6.8,12.8-10.3,31-10.4,54.7v15c0,24.8,3.5,43.5,10.6,56c7.1,12.5,18.2,18.7,33.5,18.7     c13,0,22.7-3.5,29.1-10.4v-38.6h-34.8v-41.2h84.9V-389.7z"></path>			</g>		</g>	</g></g></svg>