<svg xmlns="http://www.w3.org/2000/svg" viewBox="0 0 392.64 392.68"><defs><style>.cls-1{fill:#fcfcfc;}.cls-2{fill:#d9d9d9;fill-opacity:0.82;fill-rule:evenodd;}.cls-3{isolation:isolate;}.cls-4{fill:#003add;}.cls-5{fill:#00258f;}</style></defs><g id="Layer_2" data-name="Layer 2"><g id="Layer_1-2" data-name="Layer 1"><g id="feg_token_development_icon" data-name="feg token development icon"><circle class="cls-1" cx="196.32" cy="196.36" r="196.32"></circle><path class="cls-2" d="M196.27,392.52c108.43,0,196.37-87.84,196.37-196.26S304.7,0,196.27,0Z"></path><g class="cls-3"><path class="cls-4" d="M145,205.93H109.2v37.23H87V149.7h61.58v17.39H109.2V188.6H145Z"></path><path class="cls-4" d="M214.91,203.49H180v22.34h41.22v17.33H157.82V149.7h63.54v17.39H180V186.8h34.9Z"></path><path class="cls-4" d="M305.64,231.61q-5.13,5.77-15,9.31A63.8,63.8,0,0,1,269,244.45q-18.07,0-28.89-11.24T228.57,202l-.07-8.09q0-13.8,4.81-24.1a36.05,36.05,0,0,1,13.75-15.86,38.47,38.47,0,0,1,20.71-5.55q17.19,0,26.71,8t11.09,23.85H284.2q-1.12-7.83-4.93-11.17t-10.74-3.34a14.43,14.43,0,0,0-12.9,7.19q-4.56,7.19-4.62,20.54v5.65q0,14,4.71,21t14.83,7q8.65,0,12.9-3.91V208.69H268V193.22h37.62Z"></path></g><path class="cls-5" d="M144.93,206H109.09v37.22H87V149.7h61.55v17.47H109.09v21.47h35.84Zm51.34-56.25v17.47H180v19.67h16.32v16.74H180v22.29h16.32v17.3H157.74V149.7Z"></path></g></g></g></svg>