<svg xmlns="http://www.w3.org/2000/svg" xmlns:xlink="http://www.w3.org/1999/xlink" xmlns:serif="http://www.serif.com/" width="100%" height="100%" viewBox="0 0 49 49" xml:space="preserve" style="fill-rule:evenodd;clip-rule:evenodd;stroke-linejoin:round;stroke-miterlimit:2;">    <g transform="matrix(1,0,0,1,-6664,-1919)">        <g id="frictionless_rewards_icon" transform="matrix(0.838937,0,0,0.700099,8191.34,2545.81)">            <g transform="matrix(1.56631,0,0,1.87693,-8773.76,-3514.59)">                <circle cx="4457.91" cy="1413.86" r="18.302" style="fill:rgb(253,253,253);"></circle>            </g>            <g transform="matrix(-1.56598,2.29808e-16,-1.91777e-16,-1.87653,5189.71,1792.28)">                <path d="M4457.91,1395.56C4447.8,1395.56 4439.6,1403.75 4439.6,1413.86C4439.6,1423.97 4447.8,1432.16 4457.91,1432.16L4457.91,1395.56Z" style="fill:rgb(217,217,217);fill-opacity:0.82;"></path>            </g>            <g transform="matrix(1,0,0,1,1.42952,2.60842)">                <g transform="matrix(-1.19198,3.88578e-16,-2.77556e-16,-1.42837,3790.07,1679.81)">                    <path d="M4697.77,1771.41C4697.77,1769.95 4696.59,1768.77 4695.13,1768.77L4672.06,1768.77C4670.6,1768.77 4669.42,1769.95 4669.42,1771.41L4669.42,1776.73C4669.42,1778.17 4670.59,1779.34 4672.02,1779.34L4695.13,1779.34C4696.59,1779.34 4697.77,1778.15 4697.77,1776.69L4697.77,1771.41Z" style="fill:rgb(0,58,221);"></path>                </g>                <g transform="matrix(1.19198,0,0,1.42837,-7367.22,-3399.95)">                    <circle cx="4676.67" cy="1769.92" r="5.931" style="fill:rgb(0,58,221);"></circle>                </g>            </g>            <g transform="matrix(1.19198,0,0,1.42837,-9763.95,-3636.36)">                <path d="M6688.52,1944.34L6688.52,1954.9L6677.04,1954.9C6675.58,1954.9 6674.4,1953.72 6674.4,1952.26L6674.4,1946.95C6674.4,1945.51 6675.57,1944.34 6677.01,1944.34L6688.52,1944.34ZM6688.52,1931.33C6685.27,1931.36 6682.65,1934.01 6682.65,1937.26C6682.65,1940.51 6685.27,1943.16 6688.52,1943.19L6688.52,1931.33Z" style="fill:rgb(0,37,143);"></path>            </g>        </g>    </g></svg>