<svg xmlns="http://www.w3.org/2000/svg" xmlns:xlink="http://www.w3.org/1999/xlink" xmlns:serif="http://www.serif.com/" width="100%" height="100%" viewBox="0 0 49 49" xml:space="preserve" style="fill-rule:evenodd;clip-rule:evenodd;stroke-linejoin:round;stroke-miterlimit:2;">    <g transform="matrix(1,0,0,1,-6791,-1919)">        <g id="fwrap_enabled_icon" transform="matrix(0.838937,0,0,0.700099,8094.09,2545.81)">            <g transform="matrix(1.56631,0,0,1.87693,-8506.88,-3514.59)">                <circle cx="4457.91" cy="1413.86" r="18.302" style="fill:rgb(253,253,253);"></circle>            </g>            <g transform="matrix(-1.56598,2.29808e-16,-1.91777e-16,-1.87653,5456.58,1792.26)">                <path d="M4457.91,1395.56C4447.8,1395.56 4439.6,1403.75 4439.6,1413.86C4439.6,1423.97 4447.8,1432.16 4457.91,1432.16L4457.91,1395.56Z" style="fill:rgb(217,217,217);fill-opacity:0.82;"></path>            </g>            <g>                <g transform="matrix(-1.10592,0,0,1.32523,3901.47,-3216.4)">                    <path d="M4919.99,1772.7C4919.99,1770.08 4917.86,1767.95 4915.25,1767.95L4897.19,1767.95C4894.57,1767.95 4892.44,1770.08 4892.44,1772.7L4892.44,1782.24C4892.44,1784.83 4894.54,1786.92 4897.13,1786.92L4915.25,1786.92C4917.86,1786.92 4919.99,1784.8 4919.99,1782.18L4919.99,1772.7Z" style="fill:rgb(0,58,221);"></path>                </g>                <g transform="matrix(1.19198,0,0,1.42837,-9648.02,-3636.36)">                    <path d="M6803.41,1935.95C6804.22,1934.95 6805.45,1934.31 6806.84,1934.31L6823.59,1934.31C6824.97,1934.31 6826.21,1934.95 6827.01,1935.95L6815.21,1950.09L6803.41,1935.95Z" style="fill:rgb(0,37,143);"></path>                </g>                <g transform="matrix(1.19198,0,0,1.42837,-9648.02,-3636.36)">                    <path d="M6815.01,1934.31L6815.01,1951.92L6806.84,1951.92C6804.41,1951.92 6802.44,1949.94 6802.44,1947.52L6802.44,1938.72C6802.44,1936.29 6804.41,1934.31 6806.84,1934.31L6815.01,1934.31Z" style="fill:rgb(0,37,143);"></path>                </g>                <g transform="matrix(1.19198,0,0,1.42837,-9648.02,-3636.36)">                    <path d="M6815.01,1949.85L6803.41,1935.95C6803.41,1935.95 6803.43,1935.92 6803.43,1935.92L6803.45,1935.91L6803.47,1935.88L6803.48,1935.87L6803.51,1935.84L6803.53,1935.81L6803.55,1935.79L6803.57,1935.77L6803.59,1935.75L6803.61,1935.72L6803.62,1935.71L6803.65,1935.68L6803.68,1935.65L6803.69,1935.63L6803.72,1935.61L6803.73,1935.6L6803.76,1935.57L6803.77,1935.56L6803.8,1935.53L6803.83,1935.5L6803.85,1935.49L6803.87,1935.47L6803.88,1935.45L6803.91,1935.43L6803.92,1935.41L6803.95,1935.39L6803.99,1935.36L6804,1935.35L6804.03,1935.33L6804.04,1935.32L6804.07,1935.29L6804.09,1935.28L6804.12,1935.26L6804.15,1935.23L6804.17,1935.22L6804.19,1935.19L6804.21,1935.18L6804.24,1935.16L6804.25,1935.15L6804.28,1935.13L6804.32,1935.1L6804.34,1935.09L6804.37,1935.07L6804.38,1935.06L6804.41,1935.04L6804.43,1935.03L6804.46,1935.01L6804.51,1934.98L6804.55,1934.96L6804.56,1934.95L6804.59,1934.93L6804.61,1934.92L6804.64,1934.9L6804.69,1934.87L6804.73,1934.85L6804.74,1934.84L6804.78,1934.82L6804.79,1934.82L6804.83,1934.8L6804.84,1934.79L6804.88,1934.77L6804.93,1934.75L6804.97,1934.73L6804.98,1934.72L6805.02,1934.7L6805.03,1934.7L6805.07,1934.68L6805.12,1934.66L6805.13,1934.66L6805.17,1934.64L6805.18,1934.64L6805.22,1934.62L6805.23,1934.62L6805.27,1934.6L6805.32,1934.58L6805.37,1934.57L6805.38,1934.56L6805.42,1934.55L6805.43,1934.54L6805.47,1934.53L6805.53,1934.51L6805.57,1934.5L6805.58,1934.5L6805.63,1934.48L6805.64,1934.48L6805.68,1934.47L6805.74,1934.45L6805.78,1934.44L6805.79,1934.44L6805.84,1934.43L6805.85,1934.43L6805.89,1934.41L6805.95,1934.4L6806,1934.39L6806.01,1934.39L6806.05,1934.38L6806.06,1934.38L6806.11,1934.37L6806.17,1934.37L6806.22,1934.36L6806.22,1934.36L6806.27,1934.35L6806.28,1934.35L6806.33,1934.34L6806.39,1934.34L6806.44,1934.33L6806.49,1934.33L6806.5,1934.33L6806.55,1934.32L6806.61,1934.32L6806.67,1934.32L6806.72,1934.32L6806.73,1934.32L6806.78,1934.32L6806.84,1934.31L6815.01,1934.31L6815.01,1949.85Z" style="fill:rgb(0,58,221);"></path>                </g>            </g>        </g>    </g></svg>