<svg xmlns="http://www.w3.org/2000/svg" xmlns:xlink="http://www.w3.org/1999/xlink" xmlns:serif="http://www.serif.com/" width="100%" height="100%" viewBox="0 0 49 50" xml:space="preserve" style="fill-rule:evenodd;clip-rule:evenodd;stroke-linejoin:round;stroke-miterlimit:2;">    <g transform="matrix(1,0,0,1,-6664,-2152)">        <g id="hyper-deflationary_icon" transform="matrix(0.838937,0,0,0.859877,8191.39,2000.73)">            <g transform="matrix(1.31376,0,0,1.06964,912.584,1677.62)">                <g transform="matrix(1.19198,0,0,1.42837,-7371.9,-3396.27)">                    <circle cx="4457.91" cy="1413.86" r="18.302" style="fill:rgb(2,51,186);"></circle>                </g>                <g transform="matrix(7.2988e-17,-1.42837,1.19198,8.74624e-17,-3743.44,4990.78)">                    <path d="M4439.6,1413.86C4439.6,1423.97 4447.8,1432.16 4457.91,1432.16C4468.01,1432.16 4476.21,1423.97 4476.21,1413.86L4457.91,1413.86L4439.6,1413.86Z" style="fill:rgb(0,37,143);fill-opacity:0.82;"></path>                </g>            </g>            <g transform="matrix(0,0.813356,-0.695693,-2.17965e-17,-2574.86,1661.92)">                <g transform="matrix(1,0,0,1,-0.183414,0)">                    <g transform="matrix(1.38909,0,0,1.66456,-8298.34,-5944.6)">                        <path d="M4684.43,2882.75C4691,2882.75 4691,2906.57 4684.43,2906.57C4681.24,2906.57 4678.35,2905.32 4676.21,2903.28C4673.94,2901.11 4677.57,2898.23 4677.57,2894.84C4677.57,2892.02 4673.5,2889.24 4675.14,2887.2C4677.33,2884.49 4680.68,2882.75 4684.43,2882.75Z" style="fill:rgb(216,216,216);"></path>                    </g>                    <g transform="matrix(-1.38909,0,0,1.66456,4716.16,-5944.6)">                        <path d="M4684.43,2882.75C4691,2882.75 4691,2906.57 4684.43,2906.57C4681.24,2906.57 4678.35,2905.32 4676.21,2903.28C4673.94,2901.11 4677.57,2898.23 4677.57,2894.84C4677.57,2892.02 4673.5,2889.24 4675.14,2887.2C4677.33,2884.49 4680.68,2882.75 4684.43,2882.75Z" style="fill:rgb(216,216,216);"></path>                    </g>                </g>                <g transform="matrix(-4.59155e-17,-1.71338,1.42983,0,-4903.98,10333.8)">                    <path d="M6688.58,2170.18C6691.26,2170.03 6693.89,2166.28 6695.83,2167.84C6698.47,2169.96 6700.15,2173.21 6700.15,2176.86L6700.15,2177.11C6700.15,2180.76 6698.47,2184.01 6695.83,2186.13C6693.89,2187.7 6691.26,2183.94 6688.58,2183.79L6688.58,2170.18Z" style="fill:white;"></path>                </g>            </g>        </g>    </g></svg>