<svg xmlns="http://www.w3.org/2000/svg" xmlns:xlink="http://www.w3.org/1999/xlink" xmlns:serif="http://www.serif.com/" width="100%" height="100%" viewBox="0 0 49 49" xml:space="preserve" style="fill-rule:evenodd;clip-rule:evenodd;stroke-linejoin:round;stroke-miterlimit:2;">    <g transform="matrix(1,0,0,1,-6664,-2039)">        <g id="perpetual_increase_icon" transform="matrix(0.838937,0,0,0.700099,8191.34,3029.12)">            <g transform="matrix(1.31376,0,0,1.31376,912.635,429.409)">                <g transform="matrix(1.19198,0,0,1.42837,-7371.9,-3396.27)">                    <circle cx="4457.91" cy="1413.86" r="18.302" style="fill:rgb(2,51,186);"></circle>                </g>                <g transform="matrix(7.2988e-17,-1.42837,1.19198,8.74624e-17,-3743.44,4990.78)">                    <path d="M4439.6,1413.86C4439.6,1423.97 4447.8,1432.16 4457.91,1432.16C4468.01,1432.16 4476.21,1423.97 4476.21,1413.86L4457.91,1413.86L4439.6,1413.86Z" style="fill:rgb(0,37,143);fill-opacity:0.82;"></path>                </g>            </g>            <g transform="matrix(0.892851,0,0,0.892851,-191.903,-147.828)">                <g transform="matrix(-0.0511122,0.0612483,-0.0511122,-0.0612483,-1771.01,-1386.64)">                    <path d="M440.448,87.831L114.629,87.831L167.124,35.336C175.208,27.252 175.208,14.146 167.124,6.062C159.041,-2.022 145.934,-2.022 137.85,6.062L20.126,123.788C12.042,131.872 12.042,144.978 20.126,153.062L137.85,270.786C141.891,274.828 147.188,276.848 152.486,276.848C157.784,276.848 163.082,274.828 167.122,270.784C175.206,262.7 175.206,249.594 167.122,241.51L114.627,189.015L440.447,189.015C468.343,189.015 491.039,166.32 491.039,138.423C491.04,110.528 468.345,87.831 440.448,87.831Z" style="fill:rgb(216,216,216);fill-rule:nonzero;"></path>                </g>                <g transform="matrix(1.33503,0,0,1.59978,-10720.8,-4680.37)">                    <path d="M6688.61,2053.77L6688.61,2056.01L6692.16,2056.01L6688.61,2059.56L6688.61,2067.31L6696.03,2059.88L6696.03,2063.9C6696.03,2064.52 6696.53,2065.02 6697.15,2065.02C6697.77,2065.02 6698.27,2064.52 6698.27,2063.9L6698.27,2054.89C6698.27,2054.27 6697.77,2053.77 6697.15,2053.77L6688.61,2053.77Z" style="fill:white;fill-rule:nonzero;"></path>                </g>            </g>        </g>    </g></svg>