<svg xmlns="http://www.w3.org/2000/svg" xmlns:xlink="http://www.w3.org/1999/xlink" xmlns:serif="http://www.serif.com/" width="100%" height="100%" viewBox="0 0 49 50" xml:space="preserve" style="fill-rule:evenodd;clip-rule:evenodd;stroke-linejoin:round;stroke-miterlimit:2;">    <g transform="matrix(1,0,0,1,-6532,-2152)">        <g id="quantifiable_risk_icon" transform="matrix(0.838937,0,0,0.859877,8283.18,2000.73)">            <g transform="matrix(1.31376,0,0,1.06964,645.704,1677.62)">                <g transform="matrix(1.19198,0,0,1.42837,-7371.9,-3396.27)">                    <circle cx="4457.91" cy="1413.86" r="18.302" style="fill:rgb(2,51,186);"></circle>                </g>                <g transform="matrix(7.2988e-17,-1.42837,1.19198,8.74624e-17,-3743.44,4990.78)">                    <path d="M4439.6,1413.86C4439.6,1423.97 4447.8,1432.16 4457.91,1432.16C4468.01,1432.16 4476.21,1423.97 4476.21,1413.86L4457.91,1413.86L4439.6,1413.86Z" style="fill:rgb(0,37,143);fill-opacity:0.82;"></path>                </g>            </g>            <g transform="matrix(0.89902,0,0,0.746663,-207.884,1045.93)">                <g transform="matrix(1,0,0,1,0.382083,3.21574)">                    <g transform="matrix(1.03051,0,0,1.03051,73.0681,30.721)">                        <g transform="matrix(5.56436e-17,1.08894,-1.29557,9.50628e-17,1677.02,-5974.76)">                            <path d="M4449.56,2884.27C4449.56,2883.87 4449.1,2883.54 4448.54,2883.54L4446.5,2883.54C4445.94,2883.54 4445.48,2883.87 4445.48,2884.27L4445.48,2897.78C4445.48,2898.19 4445.94,2898.51 4446.5,2898.51L4448.54,2898.51C4449.1,2898.51 4449.56,2898.19 4449.56,2897.78L4449.56,2884.27Z" style="fill:rgb(216,216,216);"></path>                        </g>                        <g transform="matrix(0.90873,-3.69779e-32,-2.46519e-32,1.43095,-6110.09,-5268.6)">                            <path d="M4449.56,2884.3C4449.56,2883.88 4449.1,2883.54 4448.54,2883.54L4446.5,2883.54C4445.94,2883.54 4445.48,2883.88 4445.48,2884.3L4445.48,2897.75C4445.48,2898.17 4445.94,2898.51 4446.5,2898.51L4448.54,2898.51C4449.1,2898.51 4449.56,2898.17 4449.56,2897.75L4449.56,2884.3Z" style="fill:rgb(216,216,216);"></path>                        </g>                    </g>                    <g transform="matrix(5.73411e-17,1.12216,-1.35634,9.95222e-17,1862.69,-6105.57)">                        <path d="M4449.56,2884.26C4449.56,2883.86 4449.1,2883.54 4448.54,2883.54L4446.5,2883.54C4445.94,2883.54 4445.48,2883.86 4445.48,2884.26L4445.48,2897.8C4445.48,2898.19 4445.94,2898.51 4446.5,2898.51L4448.54,2898.51C4449.1,2898.51 4449.56,2898.19 4449.56,2897.8L4449.56,2884.26Z" style="fill:rgb(216,216,216);"></path>                    </g>                </g>                <g transform="matrix(1.32587,0,0,1.55754,-10751.2,-4517.01)">                    <path d="M6556.48,2184.99L6556.48,2187.93L6563.4,2187.93C6563.81,2187.93 6564.14,2187.6 6564.14,2187.19L6564.14,2185.72C6564.14,2185.32 6563.81,2184.99 6563.4,2184.99L6556.48,2184.99ZM6556.48,2166.06L6556.48,2180.23L6557.2,2180.23C6557.6,2180.23 6557.92,2179.91 6557.92,2179.51L6557.92,2174.61L6563.28,2174.61C6563.69,2174.61 6564.02,2174.28 6564.02,2173.88L6564.02,2172.41C6564.02,2172 6563.69,2171.67 6563.28,2171.67L6557.92,2171.67L6557.92,2166.78C6557.92,2166.38 6557.6,2166.06 6557.2,2166.06L6556.48,2166.06Z" style="fill:white;"></path>                </g>            </g>        </g>    </g></svg>