<svg xmlns="http://www.w3.org/2000/svg" xmlns:xlink="http://www.w3.org/1999/xlink" xmlns:serif="http://www.serif.com/" width="100%" height="100%" viewBox="0 0 49 49" xml:space="preserve" style="fill-rule:evenodd;clip-rule:evenodd;stroke-linejoin:round;stroke-miterlimit:2;">    <g transform="matrix(1,0,0,1,-6532,-2365)">        <g id="reflection_tax_icon" transform="matrix(0.838937,0,0,0.859877,8283.18,2212.93)">            <g transform="matrix(1.31376,0,0,1.06964,645.704,1677.62)">                <g transform="matrix(1.19198,0,0,1.42837,-7371.9,-3396.27)">                    <circle cx="4457.91" cy="1413.86" r="18.302" style="fill:rgb(2,51,186);"></circle>                </g>                <g transform="matrix(7.2988e-17,-1.42837,1.19198,8.74624e-17,-3743.44,4990.78)">                    <path d="M4439.6,1413.86C4439.6,1423.97 4447.8,1432.16 4457.91,1432.16C4468.01,1432.16 4476.21,1423.97 4476.21,1413.86L4457.91,1413.86L4439.6,1413.86Z" style="fill:rgb(0,37,143);fill-opacity:0.82;"></path>                </g>            </g>            <g transform="matrix(5.48994e-17,-0.874741,0.918953,5.48994e-17,-2246.33,-1595.64)">                <g transform="matrix(1,0,0,1,0.661975,-0.717502)">                    <g transform="matrix(8.62834e-17,1.3748,-1.19198,7.12105e-17,3350.88,-5595.79)">                        <path d="M4228.7,4545.52C4228.7,4544.82 4228.23,4544.25 4227.64,4544.25L4211.04,4544.25C4210.45,4544.25 4209.97,4544.82 4209.97,4545.52L4209.97,4547.28C4209.97,4547.98 4210.45,4548.55 4211.04,4548.55L4227.64,4548.55C4228.23,4548.55 4228.7,4547.98 4228.7,4547.28L4228.7,4545.52Z" style="fill:rgb(216,216,216);"></path>                    </g>                    <g transform="matrix(1,0,0,1,0,-0.32262)">                        <g transform="matrix(-0.726229,0.708543,-0.84286,-0.822334,4839.89,949.886)">                            <path d="M4228.7,4546.4C4228.7,4545.22 4227.59,4544.25 4226.21,4544.25L4212.46,4544.25C4211.09,4544.25 4209.97,4545.22 4209.97,4546.4C4209.97,4547.59 4211.09,4548.55 4212.46,4548.55L4226.21,4548.55C4227.59,4548.55 4228.7,4547.59 4228.7,4546.4Z" style="fill:rgb(216,216,216);"></path>                        </g>                        <g transform="matrix(0.707107,-0.689887,0.724756,0.707107,-755.111,-1354.65)">                            <g transform="matrix(1.11022e-16,-0.512239,1.19198,2.22045e-16,-7473.71,2365.83)">                                <path d="M4228.7,4546.4C4228.7,4545.22 4226.52,4544.25 4223.83,4544.25L4214.85,4544.25C4212.16,4544.25 4209.97,4545.22 4209.97,4546.4C4209.97,4547.59 4212.16,4548.55 4214.85,4548.55L4223.83,4548.55C4226.52,4548.55 4228.7,4547.59 4228.7,4546.4Z" style="fill:rgb(216,216,216);"></path>                            </g>                            <g transform="matrix(0.84286,0.822334,-0.84286,0.822334,-1774.04,-7018.55)">                                <circle cx="4231.76" cy="4564.48" r="3.976" style="fill:rgb(216,216,216);"></circle>                            </g>                        </g>                    </g>                </g>                <g transform="matrix(8.14076e-17,1.29711,-1.32949,7.94251e-17,1117.92,-8299.76)">                    <path d="M6556.44,2394.2L6556.44,2398.05L6564.9,2398.05C6565.53,2398.05 6566.04,2397.55 6566.04,2396.92L6566.04,2395.34C6566.04,2394.71 6565.53,2394.2 6564.9,2394.2L6556.44,2394.2ZM6556.44,2388.07L6556.44,2392.73C6556.93,2392.73 6557.42,2392.54 6557.79,2392.17L6560.3,2389.66C6561.05,2388.91 6561.05,2387.69 6560.3,2386.94C6559.55,2386.19 6558.33,2386.19 6557.58,2386.94L6556.44,2388.07ZM6559.78,2383.89C6559.78,2381.93 6561.38,2380.33 6563.35,2380.33C6565.31,2380.33 6566.91,2381.93 6566.91,2383.89C6566.91,2385.86 6565.31,2387.46 6563.35,2387.46C6561.38,2387.46 6559.78,2385.86 6559.78,2383.89Z" style="fill:white;"></path>                </g>            </g>        </g>    </g></svg>