<svg xmlns="http://www.w3.org/2000/svg" xmlns:xlink="http://www.w3.org/1999/xlink" xmlns:serif="http://www.serif.com/" width="100%" height="100%" viewBox="0 0 49 49" xml:space="preserve" style="fill-rule:evenodd;clip-rule:evenodd;stroke-linejoin:round;stroke-miterlimit:2;">    <g transform="matrix(1,0,0,1,-6791,-1688)">        <g id="routing_feature_icon" transform="matrix(0.838937,0,0,0.700099,8094.09,2678.21)">            <g transform="matrix(1.56631,0,0,1.87693,-8506.88,-4033.03)">                <circle cx="4457.91" cy="1413.86" r="18.302" style="fill:rgb(253,253,253);"></circle>            </g>            <g transform="matrix(-1.56598,2.29808e-16,-1.91777e-16,-1.87653,5456.58,1273.84)">                <path d="M4457.91,1395.56C4447.8,1395.56 4439.6,1403.75 4439.6,1413.86C4439.6,1423.97 4447.8,1432.16 4457.91,1432.16L4457.91,1395.56Z" style="fill:rgb(217,217,217);fill-opacity:0.82;"></path>            </g>            <g>                <g transform="matrix(1.19198,0,0,1.42837,-7374.26,-3400.52)">                    <path d="M4901.6,1418.22L4901.6,1424.11L4892.53,1415.05L4901.6,1405.98L4901.6,1411.87L4913.73,1411.87L4913.73,1405.98L4922.79,1415.05L4913.73,1424.11L4913.73,1418.22L4901.6,1418.22Z" style="fill:rgb(0,37,143);"></path>                </g>                <g transform="matrix(0.5935,0,0,1.42837,-4428.04,-3400.52)">                    <path d="M4892.53,1418.22L4892.53,1411.87L4904.59,1411.87L4904.59,1405.98L4922.79,1415.05L4904.59,1424.11L4904.59,1418.22L4892.53,1418.22Z" style="fill:rgb(0,58,221);"></path>                </g>            </g>        </g>    </g></svg>