<svg xmlns="http://www.w3.org/2000/svg" xmlns:xlink="http://www.w3.org/1999/xlink" xmlns:serif="http://www.serif.com/" width="100%" height="100%" viewBox="0 0 49 49" xml:space="preserve" style="fill-rule:evenodd;clip-rule:evenodd;stroke-linejoin:round;stroke-miterlimit:2;">    <g transform="matrix(1,0,0,1,-6791,-2365)">        <g id="smart_rising_price_floor_icon" transform="matrix(0.838937,0,0,0.859877,8094.13,2212.93)">            <g transform="matrix(1.31376,0,0,1.06964,1179.46,1677.62)">                <g transform="matrix(1.19198,0,0,1.42837,-7371.9,-3396.27)">                    <circle cx="4457.91" cy="1413.86" r="18.302" style="fill:rgb(2,51,186);"></circle>                </g>                <g transform="matrix(7.2988e-17,-1.42837,1.19198,8.74624e-17,-3743.44,4990.78)">                    <path d="M4439.6,1413.86C4439.6,1423.97 4447.8,1432.16 4457.91,1432.16C4468.01,1432.16 4476.21,1423.97 4476.21,1413.86L4457.91,1413.86L4439.6,1413.86Z" style="fill:rgb(0,37,143);fill-opacity:0.82;"></path>                </g>            </g>            <g transform="matrix(0.537289,-0.524204,0.448371,0.437452,56.439,-130.326)">                <g>                    <g transform="matrix(-0.0511122,0.0612483,-0.0511122,-0.0612483,-1771.01,-1386.64)">                        <path d="M440.448,87.831L114.629,87.831L167.124,35.336C175.208,27.252 175.208,14.146 167.124,6.062C159.041,-2.022 145.934,-2.022 137.85,6.062L20.126,123.788C12.042,131.872 12.042,144.978 20.126,153.062L137.85,270.786C141.891,274.828 147.188,276.848 152.486,276.848C157.784,276.848 163.082,274.828 167.122,270.784C175.206,262.7 175.206,249.594 167.122,241.51L114.627,189.015L440.447,189.015C468.343,189.015 491.039,166.32 491.039,138.423C491.04,110.528 468.345,87.831 440.448,87.831Z" style="fill:rgb(216,216,216);fill-rule:nonzero;"></path>                    </g>                    <g transform="matrix(0.94401,1.13122,-0.803787,0.963188,-2960.82,-10037.4)">                        <path d="M4458.9,3767.56C4458.9,3765.82 4457.7,3764.41 4456.23,3764.41L4436.41,3764.41C4434.93,3764.41 4433.74,3765.82 4433.74,3767.56C4433.74,3769.29 4434.93,3770.7 4436.41,3770.7L4456.23,3770.7C4457.7,3770.7 4458.9,3769.29 4458.9,3767.56Z" style="fill:rgb(216,216,216);"></path>                    </g>                </g>                <g transform="matrix(1.10926,1.32924,-1.10926,1.32924,-6700.61,-13614.5)">                    <path d="M6815.23,2378.2L6815.23,2400.18C6816.51,2400.18 6817.56,2399.13 6817.56,2397.85L6817.56,2392.16L6823.65,2392.16C6824.91,2392.16 6825.93,2391.14 6825.93,2389.88C6825.93,2388.63 6824.91,2387.61 6823.65,2387.61L6817.56,2387.61L6817.56,2382.84L6819.98,2385.26C6820.35,2385.63 6820.95,2385.63 6821.32,2385.26C6821.7,2384.88 6821.7,2384.28 6821.32,2383.91L6815.9,2378.48C6815.72,2378.3 6815.47,2378.2 6815.23,2378.2Z" style="fill:rgb(248,248,248);"></path>                </g>            </g>        </g>    </g></svg>