<svg xmlns="http://www.w3.org/2000/svg" xmlns:xlink="http://www.w3.org/1999/xlink" xmlns:serif="http://www.serif.com/" width="100%" height="100%" viewBox="0 0 49 50" xml:space="preserve" style="fill-rule:evenodd;clip-rule:evenodd;stroke-linejoin:round;stroke-miterlimit:2;">    <g transform="matrix(1,0,0,1,-6791,-2152)">        <g id="smartlend_icon" transform="matrix(0.838937,0,0,0.859877,8094.13,2000.73)">            <g transform="matrix(1.31376,0,0,1.06964,1179.46,1677.62)">                <g transform="matrix(1.19198,0,0,1.42837,-7371.9,-3396.27)">                    <circle cx="4457.91" cy="1413.86" r="18.302" style="fill:rgb(2,51,186);"></circle>                </g>                <g transform="matrix(7.2988e-17,-1.42837,1.19198,8.74624e-17,-3743.44,4990.78)">                    <path d="M4439.6,1413.86C4439.6,1423.97 4447.8,1432.16 4457.91,1432.16C4468.01,1432.16 4476.21,1423.97 4476.21,1413.86L4457.91,1413.86L4439.6,1413.86Z" style="fill:rgb(0,37,143);fill-opacity:0.82;"></path>                </g>            </g>            <g transform="matrix(0.95071,0,0,0.774054,-75.1879,1076.78)">                <g transform="matrix(1,0,0,1,0.985869,-0.264052)">                    <g transform="matrix(1.03229,-0.714185,0.595992,1.237,-8316.28,-1208.86)">                        <path d="M4915.46,2902.18C4915.46,2899.5 4913.27,2897.31 4910.59,2897.31L4899.38,2897.31C4896.69,2897.31 4894.51,2899.5 4894.51,2902.18C4894.51,2904.87 4896.69,2907.05 4899.38,2907.05L4910.59,2907.05C4913.27,2907.05 4915.46,2904.87 4915.46,2902.18Z" style="fill:rgb(216,216,216);"></path>                    </g>                    <g transform="matrix(0.528312,0.633082,-0.436861,0.523496,-2841.99,-5756.32)">                        <path d="M4915.46,2902.18C4915.46,2899.5 4913.65,2897.31 4911.43,2897.31L4898.54,2897.31C4896.32,2897.31 4894.51,2899.5 4894.51,2902.18C4894.51,2904.87 4896.32,2907.05 4898.54,2907.05L4911.43,2907.05C4913.65,2907.05 4915.46,2904.87 4915.46,2902.18Z" style="fill:rgb(216,216,216);"></path>                    </g>                    <g transform="matrix(1.19198,0,0,1.42837,-7370.31,-5261.65)">                        <circle cx="4896.9" cy="2889.72" r="4.892" style="fill:rgb(216,216,216);"></circle>                    </g>                </g>                <g transform="matrix(1.25378,0,0,1.50242,-10068.1,-4397.03)">                    <path d="M6814.36,2175.35L6814.36,2186.05L6822.99,2181.06C6825.16,2179.81 6825.94,2177.06 6824.76,2174.86C6824.67,2174.68 6824.57,2174.5 6824.43,2174.34C6824.15,2173.95 6823.82,2173.62 6823.45,2173.34L6818.84,2168.73C6817.9,2167.8 6816.38,2167.8 6815.45,2168.73C6814.51,2169.67 6814.51,2171.19 6815.45,2172.13L6817.09,2173.77L6814.36,2175.35Z" style="fill:white;"></path>                </g>            </g>        </g>    </g></svg>