<svg xmlns="http://www.w3.org/2000/svg" viewBox="0 0 1028.23 138.87"><defs><style>.cls-1{fill:#398ef6;}.cls-2{fill:#fff;}</style></defs><g id="Layer_2" data-name="Layer 2"><g id="WORK_MARK_DARK" data-name="WORK MARK DARK"><path class="cls-1" d="M1.74,109q52.85,2.9,71.55,2.9a9,9,0,0,0,9.65-9.65V84.87H38.58q-20.26,0-29.42-9.17T0,46.29V40.5Q0,20.25,9.16,11.09T38.58,1.93h67.69v27h-60q-11.57,0-11.57,11.57v3.86q0,11.58,11.57,11.57H81q18.9,0,27.77,8.88t8.87,27.77v9.64q0,18.91-8.87,27.78T81,138.87q-9.84,0-20.83-.39l-17.75-.77q-19.66-1-40.69-2.7Z"></path><path class="cls-1" d="M196.15,32.79q15.63,0,24.11,11.57a64.2,64.2,0,0,1,19.19-8.77,71.11,71.11,0,0,1,18.42-2.8h1.93q13.11,0,21,7.91t7.9,21v75.22H255V67.51a6.58,6.58,0,0,0-6.75-6.75h-1q-8.69,0-22.19,3.85v72.33H191.33V67.51a6.58,6.58,0,0,0-6.75-6.75h-1q-8.69,0-22.18,3.85v72.33H127.68V34.72h29.9l1.93,9.64a68.89,68.89,0,0,1,18.61-8.77,58.93,58.93,0,0,1,16.1-2.8Z"></path><path class="cls-1" d="M307.05,36.65a591.73,591.73,0,0,1,63.65-3.86q13.13,0,21,7.91t7.9,21v75.22H369.74l-1.93-9.64a69.17,69.17,0,0,1-18.61,8.77,59.05,59.05,0,0,1-16.11,2.8h-6.75q-13.11,0-21-7.91t-7.91-21v-8.68q0-13.11,7.91-21t21-7.91h39.54V64.61a6.6,6.6,0,0,0-6.75-6.75q-12.54,0-27.68,1.16t-24.4,1.74Zm35.69,75.22A82,82,0,0,0,365.88,108V96.44h-28a6.6,6.6,0,0,0-6.75,6.75v1.93a6.6,6.6,0,0,0,6.75,6.75Z"></path><path class="cls-1" d="M469.84,62.68a61.19,61.19,0,0,0-25.08,5.79v68.47H411V34.72h29.9l1.93,12.53q16.57-14.46,34.71-14.46h8.68V62.68Z"></path><path class="cls-1" d="M570.33,136.94a359.12,359.12,0,0,1-36.65,1.93q-13.12,0-21-7.91t-7.91-21V60.76H493.17v-26h11.58l3.85-23.15h29.9V34.72h24.11v26H538.5v44.36a6.6,6.6,0,0,0,6.75,6.75h25.08Z"></path><path class="cls-2" d="M657.12,1.93q21.78,0,33.07,11.28t11.29,33.08V92.58q0,21.8-11.29,33.08t-33.07,11.28H581.89V1.93Zm9.64,44.36q0-17.35-17.36-17.36H616.61v81H649.4q17.36,0,17.36-17.36Z"></path><path class="cls-2" d="M807.56,135a660.83,660.83,0,0,1-67.51,3.86q-13.12,0-21-7.91t-7.91-21V63.65q0-14.48,8.2-22.66T742,32.79h38.57q14.48,0,22.67,8.2t8.19,22.66V99.33H744.87v7.72a6.6,6.6,0,0,0,6.75,6.75q19.1,0,55.94-2.9Zm-55-78.11q-7.73,0-7.72,7.71V75.22h32.79V64.61q0-7.71-7.71-7.71Z"></path><path class="cls-2" d="M855.77,136.94H821.06V1.93h107v27H855.77V60.76h56.9v27h-56.9Z"></path><path class="cls-2" d="M978.25,38.58v98.36H944.5V64.61H930v-26ZM944.5,0h33.75V27H944.5Z"></path><path class="cls-2" d="M1002.48,116.8v3.32h-6.43v16.8h-4v-16.8h-6.43V116.8Zm21.75,20.12-.74-11.84c-.07-1.55-.07-3.48-.14-5.62h-.23c-.51,1.78-1.11,4.14-1.7,6l-3.62,11.17h-4.14L1010,125.16c-.37-1.56-1-3.92-1.41-5.7h-.22c0,1.85-.07,3.77-.15,5.62l-.73,11.84h-3.85l1.48-20.12h6l3.48,9.83c.44,1.56.81,3,1.33,5.11h.07c.52-1.85,1-3.55,1.41-5l3.47-9.91h5.77l1.56,20.12Z"></path></g></g></svg>