<svg xmlns="http://www.w3.org/2000/svg" xmlns:xlink="http://www.w3.org/1999/xlink" xmlns:serif="http://www.serif.com/" width="100%" height="100%" viewBox="0 0 49 49" xml:space="preserve" style="fill-rule:evenodd;clip-rule:evenodd;stroke-linejoin:round;stroke-miterlimit:2;">    <g transform="matrix(1,0,0,1,-6532,-1800)">        <g id="smartswap-enabled_icon" transform="matrix(0.838937,0,0,0.700099,8283.13,2612.93)">            <g transform="matrix(1.56631,0,0,1.87693,-9040.63,-3779.99)">                <circle cx="4457.91" cy="1413.86" r="18.302" style="fill:rgb(253,253,253);"></circle>            </g>            <g transform="matrix(-1.56598,2.29808e-16,-1.91777e-16,-1.87653,4922.83,1526.86)">                <path d="M4457.91,1395.56C4447.8,1395.56 4439.6,1403.75 4439.6,1413.86C4439.6,1423.97 4447.8,1432.16 4457.91,1432.16L4457.91,1395.56Z" style="fill:rgb(217,217,217);fill-opacity:0.82;"></path>            </g>            <g transform="matrix(1,0,0,1,0.0512582,249.724)">                <g transform="matrix(1.07177e-16,-2.09745,1.75034,1.28432e-16,-4859.42,7959.52)">                    <path d="M4452.53,1590.81C4447.24,1590.81 4442.94,1595.1 4442.94,1600.39C4442.94,1605.68 4447.24,1609.98 4452.53,1609.98C4450.94,1607.74 4449.65,1604.22 4449.65,1600.39C4449.65,1596.57 4450.94,1593.04 4452.53,1590.81Z" style="fill:rgb(0,37,143);"></path>                </g>                <g transform="matrix(1.19198,0,0,1.42837,-9873.41,-3981.95)">                    <path d="M6556.48,1826.24L6556.48,1836.09C6564.25,1836.09 6570.55,1829.78 6570.55,1822.02C6567.27,1824.35 6562.09,1826.24 6556.48,1826.24Z" style="fill:rgb(0,58,221);"></path>                </g>                <g transform="matrix(8.7014e-17,1.70286,-1.42105,1.0427e-16,197.307,-8976.55)">                    <path d="M4453.63,1589.64L4453.63,1584.79L4465.68,1584.79L4465.68,1580.3L4472.6,1587.22L4465.68,1594.13L4465.68,1589.64L4453.63,1589.64Z" style="fill:rgb(0,58,221);"></path>                </g>                <g transform="matrix(1.19198,0,0,1.42837,-9873.41,-3981.95)">                    <path d="M6556.48,1812.76L6559.36,1812.76L6559.36,1827.12L6564.73,1827.12L6556.48,1835.37L6556.48,1812.76Z" style="fill:rgb(0,37,143);"></path>                </g>            </g>        </g>    </g></svg>