<svg xmlns="http://www.w3.org/2000/svg" xmlns:xlink="http://www.w3.org/1999/xlink" xmlns:serif="http://www.serif.com/" width="100%" height="100%" viewBox="0 0 49 49" xml:space="preserve" style="fill-rule:evenodd;clip-rule:evenodd;stroke-linejoin:round;stroke-miterlimit:2;">    <g transform="matrix(1,0,0,1,-6791,-2258)">        <g id="waived_reflections_icon" transform="matrix(0.838937,0,0,0.700099,8094.1,3248.32)">            <g transform="matrix(1,0,0,1,533.747,-253.045)">                <g transform="matrix(1.56631,0,0,1.87693,-9040.63,-3779.99)">                    <circle cx="4457.91" cy="1413.86" r="18.302" style="fill:rgb(252,252,252);"></circle>                </g>                <g transform="matrix(-1.56598,2.29808e-16,-1.91777e-16,-1.87653,4922.83,1526.86)">                    <path d="M4457.91,1395.56C4447.8,1395.56 4439.6,1403.75 4439.6,1413.86C4439.6,1423.97 4447.8,1432.16 4457.91,1432.16L4457.91,1395.56Z" style="fill:rgb(217,217,217);fill-opacity:0.82;"></path>                </g>            </g>            <g transform="matrix(1,0,0,1,0,0.138305)">                <g transform="matrix(1.29658,0,0,1.5537,-7594.56,-7225.51)">                    <path d="M4681.69,3752.2L4684.28,3760.19L4692.68,3760.19L4685.88,3765.12L4688.48,3773.11L4681.69,3768.17L4674.89,3773.11L4677.49,3765.12L4670.69,3760.19L4679.09,3760.19L4681.69,3752.2Z" style="fill:rgb(0,37,143);"></path>                </g>                <g id="_-Curve-" serif:id="(Curve)" transform="matrix(1.19198,0,0,1.42837,-9648.04,-4639.94)">                    <path d="M6815.23,2271.31L6818.05,2279.98L6827.18,2279.98L6819.79,2285.34L6822.61,2294.03L6815.23,2288.66L6815.23,2271.31Z" style="fill:rgb(0,57,220);"></path>                </g>            </g>        </g>    </g></svg>